<svg version="1.1" id="Layer_1" xmlns="http://www.w3.org/2000/svg" xmlns:xlink="http://www.w3.org/1999/xlink" x="0px" y="0px"
	 width="100%" viewBox="0 0 2000 2000" xml:space="preserve">
<path fill="#FDFDFD" opacity="1.000000" stroke="none" 
	d="
M1297.954712,1083.969482 
	C1296.185181,1105.401733 1292.679688,1126.036865 1286.457886,1146.158081 
	C1273.063843,1189.474731 1249.008179,1226.450195 1218.775879,1259.735107 
	C1217.548706,1261.086304 1216.157349,1262.296509 1214.779663,1263.500610 
	C1213.583984,1264.545654 1212.299561,1265.488770 1210.596191,1266.840698 
	C1212.604004,1267.921875 1214.005371,1268.735596 1215.456055,1269.448853 
	C1244.489502,1283.721436 1272.624390,1299.571411 1297.619751,1320.239014 
	C1320.803833,1339.409058 1340.982544,1361.583496 1352.905151,1389.538208 
	C1371.917603,1434.116089 1371.008423,1478.469116 1346.585571,1521.053833 
	C1328.341431,1552.865112 1303.773682,1579.439331 1275.878662,1603.110840 
	C1226.877563,1644.692627 1172.486816,1677.455444 1113.460449,1702.567017 
	C1088.129517,1713.343384 1061.975586,1721.671143 1034.616089,1725.771484 
	C1015.199890,1728.681274 995.851929,1728.018188 976.545532,1724.946289 
	C937.898865,1718.797241 900.546570,1708.316406 865.299744,1691.042969 
	C850.832703,1683.953247 837.404358,1675.440552 828.242249,1661.584229 
	C812.819031,1638.258667 813.432495,1610.820923 828.996887,1587.539551 
	C838.232971,1573.724243 851.448120,1564.443604 863.917542,1554.285645 
	C881.990967,1539.562744 900.512329,1525.390503 918.646606,1510.740723 
	C922.075684,1507.970337 923.619385,1508.726318 926.225952,1511.687500 
	C938.862000,1526.042969 951.772583,1540.156616 964.530945,1554.405029 
	C965.956299,1555.996826 966.859680,1558.063843 968.319031,1559.615356 
	C970.072571,1561.480103 972.162292,1563.028931 974.106506,1564.714600 
	C974.725464,1564.171021 975.344421,1563.627563 975.963379,1563.084106 
	C973.905273,1560.038696 971.847168,1556.993164 969.362610,1553.316772 
	C971.555786,1554.356567 973.377747,1555.001343 974.970398,1556.008545 
	C999.272644,1571.375122 1026.181885,1578.964722 1054.446045,1581.904297 
	C1084.377197,1585.017212 1114.025635,1582.601929 1142.900757,1574.005859 
	C1161.442383,1568.486084 1178.613892,1560.230103 1190.784668,1544.150635 
	C1196.544556,1536.540771 1200.124512,1528.074829 1201.357910,1518.672485 
	C1203.144287,1505.055298 1203.282715,1491.581665 1197.857300,1478.521973 
	C1191.563843,1463.372681 1181.303467,1451.361816 1168.975708,1440.885376 
	C1147.485474,1422.622803 1122.861572,1409.410034 1097.838257,1396.878906 
	C1081.490479,1388.692383 1065.018799,1380.750854 1048.538086,1372.834106 
	C1045.720947,1371.480835 1043.162476,1370.210449 1039.306274,1371.550171 
	C1002.797180,1384.235962 965.764160,1395.152710 927.759949,1402.456421 
	C884.150391,1410.837402 840.246582,1416.196899 795.717041,1415.944824 
	C743.552307,1415.649658 691.384399,1415.812256 639.218506,1415.967651 
	C634.944153,1415.980469 633.879150,1414.635742 633.829163,1410.637573 
	C633.681274,1398.814941 633.262695,1386.992676 632.765808,1375.178101 
	C632.158875,1360.745972 631.323792,1346.323730 630.678528,1331.893066 
	C630.501892,1327.942993 630.651733,1323.978271 630.651733,1319.813599 
	C628.973694,1319.813599 627.353821,1319.813599 624.931946,1319.813599 
	C626.410217,1316.284180 627.760498,1313.221191 628.985596,1310.109009 
	C635.636719,1293.212036 638.822937,1275.522217 639.787109,1257.527954 
	C641.462463,1226.263428 642.627014,1194.969727 643.807007,1163.680908 
	C645.269531,1124.897949 646.564636,1086.108521 647.867737,1047.319702 
	C649.243591,1006.362671 650.534180,965.402771 651.880127,924.444702 
	C652.859314,894.647339 653.876221,864.851196 654.861450,835.054016 
	C656.232117,793.598389 657.515930,752.139832 658.971191,710.687195 
	C660.566406,665.246155 662.314880,619.810486 663.991028,574.372253 
	C664.027039,573.396851 663.995605,572.418884 663.995605,570.815613 
	C662.129639,570.815613 660.544067,570.814270 658.958557,570.815857 
	C636.627380,570.838318 614.289612,571.204590 591.966919,570.781189 
	C572.191528,570.406067 552.437195,569.031738 532.665649,568.316711 
	C505.203552,567.323425 477.731750,566.601013 450.269073,565.622803 
	C439.800232,565.249939 429.345215,564.490295 417.816254,562.768494 
	C418.678375,562.436279 419.595032,562.202271 420.394806,561.757812 
	C463.165436,537.989014 505.959259,514.261475 548.678772,490.400970 
	C590.240356,467.187134 631.728149,443.841034 673.240356,420.538818 
	C681.222473,416.058167 689.099243,411.383545 697.174377,407.079315 
	C699.392334,405.897125 702.185974,405.074097 704.658691,405.200073 
	C735.926025,406.792755 767.166931,409.522247 798.447388,410.063171 
	C827.854309,410.571686 857.373230,409.867462 886.710876,407.812378 
	C925.437195,405.099579 963.811951,407.033691 1002.238525,411.554443 
	C1028.440796,414.636993 1054.207642,419.405853 1079.252075,427.816772 
	C1111.416992,438.618988 1141.170654,453.844635 1166.941650,476.162811 
	C1202.881592,507.287384 1226.461304,545.729370 1234.931885,592.874512 
	C1238.796509,614.385071 1241.412598,636.001465 1238.718628,657.909546 
	C1232.677124,707.041077 1214.312378,751.044861 1183.272339,789.588867 
	C1174.862549,800.031799 1165.404907,809.630981 1155.933228,820.168030 
	C1159.448242,822.218079 1163.564941,824.821594 1167.858521,827.090271 
	C1195.663574,841.782410 1218.855469,861.939941 1238.697388,886.198364 
	C1240.245972,888.091614 1243.347534,889.517273 1245.839722,889.710876 
	C1268.436035,891.466553 1290.920288,893.845215 1312.807373,900.076721 
	C1325.529175,903.698669 1337.482300,908.928345 1348.086548,917.062866 
	C1375.877441,938.381226 1379.670654,970.112061 1355.923218,997.703003 
	C1344.736328,1010.700562 1330.792114,1021.365051 1317.803101,1032.751221 
	C1312.824341,1037.115601 1306.942627,1040.435547 1301.655518,1044.471436 
	C1300.209961,1045.574951 1298.544922,1047.515625 1298.484863,1049.128174 
	C1298.077759,1060.074463 1298.072876,1071.035767 1297.940308,1081.992188 
	C1297.934204,1082.491821 1297.947632,1082.991699 1297.954712,1083.969482 
M1218.512451,1035.531616 
	C1216.051147,1035.333740 1213.589844,1035.135986 1210.376953,1034.818726 
	C1181.307495,1025.409546 1151.556641,1024.353027 1121.171875,1026.968140 
	C1121.966431,1029.652710 1122.678711,1031.687500 1123.169922,1033.774414 
	C1130.397339,1064.480591 1132.801636,1095.439575 1128.627686,1126.851440 
	C1124.815796,1155.539185 1118.456177,1183.446289 1105.516602,1209.570679 
	C1105.041016,1210.530884 1105.714233,1212.646118 1106.567139,1213.542969 
	C1107.900269,1214.944702 1109.781006,1215.886963 1111.541382,1216.811157 
	C1128.301025,1225.609741 1145.054321,1234.422363 1161.923218,1243.007080 
	C1163.125854,1243.619019 1165.877197,1243.063232 1166.811035,1242.044434 
	C1179.491577,1228.212280 1192.920044,1214.927124 1204.333618,1200.098145 
	C1236.911865,1157.771362 1250.913696,1109.184570 1249.823853,1056.080444 
	C1249.750244,1052.491699 1248.442749,1048.321289 1246.287598,1045.512085 
	C1242.166016,1040.139648 1237.098633,1035.473022 1232.235718,1030.705322 
	C1231.222412,1029.711914 1229.393066,1029.551025 1228.072144,1028.285156 
	C1226.426880,1027.175171 1224.781738,1026.065186 1223.208252,1024.300903 
	C1222.369263,1019.089722 1217.453613,1013.568909 1213.135986,1013.131348 
	C1211.682373,1017.588562 1211.861328,1021.877563 1214.693115,1026.484863 
	C1216.128052,1029.328125 1217.562988,1032.171509 1218.512451,1035.531616 
M1011.932129,814.431763 
	C996.917847,829.459778 980.566162,842.968628 961.794006,852.855225 
	C933.415100,867.801392 904.482300,881.696289 875.773254,896.014709 
	C870.701050,898.544373 865.572266,900.960815 860.469666,903.429565 
	C867.647095,903.640808 874.593811,902.540222 881.527649,902.616211 
	C902.144165,902.842285 922.808960,902.769836 943.357544,904.206238 
	C980.100830,906.774658 1015.293152,915.655762 1047.456665,934.236084 
	C1052.994141,937.435059 1056.927734,937.052795 1062.359985,934.258667 
	C1094.445190,917.755554 1127.761475,904.432861 1163.215088,896.957886 
	C1167.843262,895.982117 1172.429565,894.807129 1177.662598,893.576965 
	C1176.156982,892.001160 1175.248779,890.853149 1174.151123,889.930969 
	C1154.755615,873.638550 1132.602661,862.475159 1108.540039,854.965515 
	C1085.756714,847.855103 1062.177612,845.694275 1038.521851,844.894348 
	C1025.696899,844.460754 1012.815613,845.691284 999.959778,846.171143 
	C1002.834106,845.560791 1005.769836,843.908081 1008.921875,843.112793 
	C1031.969727,837.297791 1053.672852,828.171387 1074.556396,816.948303 
	C1116.823730,794.233398 1149.683960,762.316650 1170.644165,718.762146 
	C1188.300293,682.073608 1195.181396,644.056396 1187.348267,603.422485 
	C1180.622070,568.530945 1164.454590,539.511658 1138.236572,515.911194 
	C1111.756348,492.074738 1080.306152,477.385162 1046.108643,469.208252 
	C1024.177002,463.964203 1001.635437,460.777863 979.185974,458.336548 
	C958.546631,456.092010 937.537964,454.126862 916.914612,455.466248 
	C865.301147,458.818390 813.723633,459.797577 762.075439,457.983124 
	C746.286377,457.428436 730.535583,455.835510 714.753723,454.962036 
	C712.659058,454.846130 710.289856,455.827606 708.375244,456.890656 
	C671.579712,477.320862 634.830444,497.834320 598.089478,518.362671 
	C596.944946,519.002136 595.992004,519.984375 594.949707,520.806763 
	C595.108398,521.159546 595.267029,521.512329 595.425720,521.865112 
	C635.087769,521.865112 674.749817,521.865112 714.595398,521.865112 
	C714.125427,534.570923 713.615601,547.647461 713.162781,560.726013 
	C711.785217,600.513062 710.418091,640.300537 709.068604,680.088562 
	C707.741577,719.212097 706.407715,758.335327 705.138184,797.460754 
	C703.809021,838.422058 702.618835,879.387878 701.250854,920.347839 
	C698.570862,1000.594482 695.890076,1080.841309 693.041870,1161.082031 
	C691.907654,1193.035278 690.490601,1224.980835 688.897522,1256.914673 
	C687.755798,1279.801270 683.972839,1302.286377 675.960999,1323.838989 
	C670.414917,1338.758545 663.652161,1353.066162 649.476196,1362.070435 
	C646.650757,1363.864990 643.533997,1365.200806 640.451721,1366.800049 
	C645.222534,1366.800049 649.707031,1366.797607 654.191528,1366.800415 
	C704.353760,1366.831665 754.516052,1366.884155 804.678284,1366.875244 
	C813.005432,1366.873779 821.396729,1367.214233 829.647583,1366.345215 
	C852.976257,1363.888062 876.419617,1361.870850 899.496887,1357.842285 
	C927.244019,1352.998535 954.660461,1346.260254 982.220032,1340.342041 
	C982.471741,1339.697998 982.723389,1339.053833 982.975098,1338.409790 
	C982.190674,1338.102661 981.325195,1337.920166 980.634216,1337.469849 
	C970.466553,1330.842651 960.354126,1324.130249 950.136597,1317.581421 
	C948.666565,1316.639282 946.730225,1316.018921 944.988708,1315.968262 
	C926.067261,1315.417480 907.138794,1315.102661 888.217834,1314.537231 
	C870.684692,1314.013428 853.156738,1313.301392 835.629761,1312.591797 
	C829.979736,1312.363037 824.335083,1311.941528 818.696350,1311.501343 
	C800.105835,1310.050659 781.521240,1308.522827 762.928650,1307.100342 
	C760.102661,1306.884155 757.245911,1307.070190 754.403381,1307.070190 
	C754.308289,1306.603516 754.213257,1306.136963 754.118164,1305.670288 
	C755.596741,1304.432251 757.127380,1303.250732 758.544678,1301.945923 
	C764.008362,1296.916138 770.234558,1292.466919 774.727783,1286.677002 
	C788.456970,1268.986206 796.588745,1248.332642 799.771790,1226.543823 
	C803.757629,1199.259277 805.814209,1171.642822 807.585571,1144.097656 
	C809.881531,1108.397827 811.294617,1072.635498 812.685242,1036.884521 
	C814.283630,995.789062 815.454407,954.676941 816.786621,913.571228 
	C817.482178,892.107483 818.169250,870.643127 818.780701,849.176880 
	C819.477234,824.720947 820.099182,800.262939 820.727905,775.805115 
	C821.404236,749.497681 822.103088,723.190674 822.697083,696.881348 
	C823.452759,663.411194 824.097839,629.938599 824.819336,596.467651 
	C825.357849,571.481262 825.969849,546.496460 826.470520,521.509338 
	C826.533813,518.352295 827.201233,516.678467 830.969238,516.816223 
	C860.451477,517.893982 889.926086,519.275757 918.917480,525.138245 
	C953.213745,532.073425 986.397522,542.053284 1014.643921,563.987305 
	C1038.810303,582.753052 1054.826416,606.782593 1060.861694,636.987427 
	C1063.975220,652.569214 1065.055908,668.302612 1063.033569,684.183472 
	C1061.166504,698.845947 1060.558350,713.736206 1057.703247,728.191772 
	C1051.195435,761.141235 1035.867432,789.757751 1011.932129,814.431763 
M1050.634399,1620.849487 
	C1023.676880,1617.783325 997.618408,1611.318115 973.000366,1599.743530 
	C960.905457,1594.056885 949.496094,1587.280396 940.543884,1576.970459 
	C937.044312,1572.940063 935.079712,1568.542603 935.930420,1563.301025 
	C936.928284,1557.152466 938.364624,1551.075195 939.623535,1544.904541 
	C938.359558,1545.741577 936.540466,1546.767456 934.920959,1548.046143 
	C916.363953,1562.694824 897.723633,1577.241943 879.365723,1592.136841 
	C873.075256,1597.240601 866.803650,1602.675903 861.786743,1608.967163 
	C854.681580,1617.877319 853.694092,1627.942871 859.665039,1638.318481 
	C863.352844,1644.726807 869.149353,1648.474976 875.263489,1651.890625 
	C901.647522,1666.630615 930.230469,1675.295654 959.479126,1682.033813 
	C984.449280,1687.786255 1009.587341,1690.641602 1035.128540,1686.010620 
	C1056.206421,1682.188965 1076.448364,1675.567627 1096.149658,1667.371704 
	C1141.400391,1648.547363 1183.553223,1624.263672 1222.997437,1595.146851 
	C1254.552734,1571.853394 1282.708496,1545.381226 1305.575684,1513.255005 
	C1333.992432,1473.332275 1332.547241,1424.942749 1306.418945,1386.760864 
	C1289.364502,1361.839111 1266.889038,1342.846924 1240.987427,1328.419556 
	C1207.317261,1309.665161 1172.703369,1292.589722 1138.328125,1275.121338 
	C1110.445557,1260.952393 1082.416382,1247.109253 1057.166504,1228.377441 
	C1036.071899,1212.728027 1017.833130,1194.361938 1004.871399,1171.407349 
	C988.258423,1141.986450 985.029114,1110.301880 993.874695,1078.146606 
	C1004.655884,1038.955200 1031.942139,1014.243591 1069.046021,999.960144 
	C1096.457397,989.407898 1125.065430,985.426819 1154.415283,987.097046 
	C1164.011719,987.643127 1173.669922,987.794250 1183.178711,989.046387 
	C1203.534546,991.726685 1223.517090,996.077087 1242.041504,1005.449036 
	C1249.655640,1009.301331 1252.200806,1014.638428 1250.575928,1023.051086 
	C1250.029419,1025.880615 1249.353638,1028.685303 1248.620117,1032.035034 
	C1249.940796,1031.508423 1250.609619,1031.366211 1251.137451,1031.013184 
	C1264.415283,1022.131042 1278.220337,1013.922546 1290.792358,1004.131531 
	C1303.485229,994.246338 1315.441406,983.273682 1326.795044,971.857117 
	C1335.130615,963.475159 1333.911743,955.121033 1324.181885,948.393127 
	C1318.520508,944.478638 1312.063721,941.416992 1305.569580,939.060608 
	C1286.447998,932.122192 1266.282104,930.395935 1246.223999,929.094116 
	C1217.298340,927.216797 1188.663696,929.677185 1160.600464,937.515137 
	C1117.656982,949.508972 1077.715942,968.065796 1040.010864,991.745422 
	C1013.100037,1008.646057 988.226074,1028.097778 965.962402,1050.705078 
	C949.337280,1067.586914 935.309509,1086.590698 923.772095,1107.365479 
	C908.382446,1135.076782 902.628784,1164.449951 907.885986,1195.902222 
	C911.801880,1219.329712 924.241638,1238.277344 939.324219,1255.646729 
	C958.687500,1277.946045 982.791016,1294.376587 1008.745239,1307.883057 
	C1047.947021,1328.283325 1087.573120,1347.867554 1126.993042,1367.849365 
	C1154.837158,1381.963135 1181.287354,1398.031494 1203.811768,1420.100098 
	C1231.923218,1447.642456 1245.839600,1480.016235 1241.068970,1519.880127 
	C1236.783447,1555.689453 1217.242432,1581.144043 1186.771851,1597.694702 
	C1144.626709,1620.586670 1098.545166,1624.415527 1050.634399,1620.849487 
M992.675903,760.124756 
	C996.844177,751.821472 1001.846252,743.823425 1005.019409,735.155884 
	C1013.487122,712.026428 1015.358887,687.815063 1014.753113,663.384277 
	C1014.440918,650.793152 1011.978027,638.647217 1006.112610,627.315735 
	C997.283997,610.259338 982.985352,599.252563 966.206238,590.995056 
	C949.681030,582.862610 932.144958,577.656555 914.170654,574.050659 
	C901.021545,571.412720 887.714600,569.561951 874.379150,567.343872 
	C872.094727,660.514282 869.830627,752.854736 867.547424,845.974243 
	C873.053833,843.346924 877.970093,841.054504 882.840271,838.668335 
	C908.524536,826.084412 934.792480,814.600952 957.736450,797.020752 
	C971.197205,786.706787 983.222229,775.178223 992.675903,760.124756 
M866.854187,1174.481445 
	C866.456970,1160.265747 868.612793,1146.352905 871.822876,1132.564697 
	C878.285461,1104.805786 892.462952,1080.671021 908.839722,1058.025513 
	C930.224304,1028.455322 956.334106,1003.272522 985.814758,981.662415 
	C992.166260,977.006470 998.364990,972.142151 1004.982971,967.108521 
	C958.814575,950.392029 911.870605,948.616028 864.318970,952.802917 
	C863.546448,973.475159 862.795898,993.565308 862.044922,1013.655457 
	C861.019226,1041.097778 860.203491,1068.549927 858.910706,1095.979614 
	C857.493347,1126.054077 855.674255,1156.110107 853.957520,1186.169922 
	C852.693787,1208.298340 850.379211,1230.277588 844.204346,1251.684326 
	C843.068787,1255.620850 842.199951,1259.634155 841.067688,1264.174072 
	C860.207336,1265.050171 878.816223,1265.902100 897.132935,1266.740601 
	C891.647583,1257.298462 885.440369,1248.365723 881.073914,1238.609253 
	C876.627930,1228.674927 873.161255,1218.114502 870.802734,1207.487183 
	C868.483521,1197.037109 868.094055,1186.158691 866.854187,1174.481445 
M1053.997070,1173.494629 
	C1057.199463,1176.686768 1060.401855,1179.878784 1064.154785,1183.619507 
	C1082.451050,1136.515503 1087.298828,1089.387817 1074.766113,1040.513916 
	C1073.071899,1041.225220 1071.660889,1041.692627 1070.366455,1042.379761 
	C1042.860596,1056.980225 1026.142090,1082.896240 1029.561279,1119.404541 
	C1031.532349,1140.451904 1040.535645,1157.364746 1053.997070,1173.494629 
z"/>
<path fill="#CBD5D3" opacity="1.000000" stroke="none" 
	d="
M1218.755127,1035.273193 
	C1221.775879,1032.997803 1224.554077,1030.980835 1227.703125,1028.965576 
	C1225.063232,1037.947998 1222.993896,1038.757324 1211.413330,1035.155273 
	C1213.589844,1035.135986 1216.051147,1035.333740 1218.755127,1035.273193 
z"/>
</svg>